<svg xmlns="http://www.w3.org/2000/svg" width="18" height="14" viewBox="0 0 18 14">
  <defs>
    <style>
      .cls-1 {
        fill: #222;
        fill-rule: evenodd;
      }
    </style>
  </defs>
  <path data-name="ask" class="cls-1" d="M1898,414h-14a2,2,0,0,1-2-2V402a2,2,0,0,1,1.95-2,1.025,1.025,0,0,1,.22,0h13.69a1,1,0,0,1,.25.011A2,2,0,0,1,1900,402v10A2,2,0,0,1,1898,414Zm-11.47-12,4.49,4.482L1895.5,402h-8.97Zm11.47,0.5-6.17,6.173a1.26,1.26,0,0,1-1.63,0l-6.2-6.2V412h14v-9.5Z" transform="translate(-1882 -400)"/>
</svg>
