<svg xmlns="http://www.w3.org/2000/svg" width="16" height="16" viewBox="0 0 16 16">
  <defs>
    <style>
      .bccls-1 {
        fill: #969ba4;
        fill-rule: evenodd;
      }
    </style>
  </defs>
  <path class="bccls-1" d="M14,9A7,7,0,0,0,7,2V0a9,9,0,0,1,9,9H14ZM12,9H10A3,3,0,0,0,7,6V4A5,5,0,0,1,12,9Zm2,4.053a0.507,0.507,0,0,0-.03-0.209,1.761,1.761,0,0,0-.756-0.526c-0.567-.318-1.145-0.626-1.7-0.954a2.049,2.049,0,0,0-.886-0.457c-0.607,0-1.493,1.8-2.031,1.8a2.139,2.139,0,0,1-.856-0.388A9.9,9.9,0,0,1,3.672,8.254,2.134,2.134,0,0,1,3.284,7.4c0-.537,1.8-1.421,1.8-2.026a2.045,2.045,0,0,0-.458-0.885C4.3,3.932,3.99,3.356,3.672,2.789a1.753,1.753,0,0,0-.528-0.755A0.5,0.5,0,0,0,2.935,2a4.427,4.427,0,0,0-1.384.308A2.617,2.617,0,0,0,.5,3.525,3.789,3.789,0,0,0-.011,5.373a7.646,7.646,0,0,0,.687,2.6A9.291,9.291,0,0,0,1.5,9.714,16.788,16.788,0,0,0,6.28,14.483a9.3,9.3,0,0,0,1.742.825,7.672,7.672,0,0,0,2.608.685,3.8,3.8,0,0,0,1.851-.507A2.618,2.618,0,0,0,13.7,14.434,4.416,4.416,0,0,0,14,13.053Z"/>
</svg>
