<svg xmlns="http://www.w3.org/2000/svg" width="34" height="530" viewBox="0 0 34 530">
  <defs>
    <style>
      .cls-1 {
        fill: #666;
      }

      .cls-1, .cls-3 {
        fill-rule: evenodd;
      }

      .cls-2 {
        fill: #40acf7;
      }

      .cls-3 {
        fill: #fff;
      }

      .cls-4 {
        fill: #ffa200;
      }

      .cls-5 {
        fill: #3591d7;
      }

      .cls-6 {
        fill: #e9372f;
      }

      .cls-7 {
        fill: #7bad1b;
      }

      .cls-8 {
        fill: #c63d23;
      }

      .cls-9 {
        fill: #ff5400;
      }

      .cls-10 {
        fill: #1254c3;
      }

      .cls-11 {
        fill: #7e4ee4;
      }

      .cls-12 {
        fill: #3387df;
      }
    </style>
  </defs>
  <path id="Shape" class="cls-1" d="M27.025,300v10H0V283.614L8.614,275H27.025v11h-2.03v-9H9.18L2,284.515V308H24.995v-8h2.03Z"/>
  <rect id="Shape-2" data-name="Shape" class="cls-2" x="8" y="287" width="26" height="12" rx="1" ry="1"/>
  <path id="TXT" class="cls-3" d="M15,295.981V291.03h1.864V290H12.1v1.027h1.873v4.951H15Zm9.107,0-2.169-3.074,2.034-2.9H22.444l-1.353,2.044L19.72,290H18.205l2.034,2.913-2.169,3.065h1.514l1.506-2.187,1.5,2.187h1.523Zm3.9,0V291.03h1.863V290H25.106v1.027h1.872v4.951H28.01Z"/>
  <path id="Shape-3" data-name="Shape" class="cls-1" d="M27.025,135v10H0V118.614L8.614,110H27.025v11h-2.03v-9H9.18L2,119.515V143H24.995v-8h2.03Z"/>
  <rect id="Shape-4" data-name="Shape" class="cls-4" x="8" y="122" width="26" height="12" rx="1" ry="1"/>
  <path id="JPG" class="cls-3" d="M14,131.135a1.845,1.845,0,0,0,2.022-2.079v-4.034H14.9v4.016a0.891,0.891,0,0,1-.936.963,1.36,1.36,0,0,1-.954-0.432l-0.558.981A2.089,2.089,0,0,0,14,131.135Zm5.02-.108v-2.071H20.93a1.932,1.932,0,0,0,2.017-2,1.874,1.874,0,0,0-2.017-1.936H18v6h1.029Zm1.822-3.114H19v-1.851h1.848a0.888,0.888,0,0,1,.974.894A0.943,0.943,0,0,1,20.846,127.913Zm6.344,3.168a3.3,3.3,0,0,0,2.531-1.123v-1.937H27.012v0.949h1.443V129.5a2,2,0,0,1-1.265.454,1.953,1.953,0,0,1,0-3.9,1.682,1.682,0,0,1,1.408.775l1.051-.57a2.779,2.779,0,0,0-2.459-1.328A3.08,3.08,0,1,0,27.19,131.081Z"/>
  <path id="Shape-5" data-name="Shape" class="cls-1" d="M27.025,80V90H0V63.614L8.614,55H27.025V66h-2.03V57H9.18L2,64.515V88H24.995V80h2.03Z"/>
  <rect id="Shape-6" data-name="Shape" class="cls-5" x="8" y="67" width="26" height="12" rx="1" ry="1"/>
  <path id="DOC" class="cls-3" d="M14.095,76.014a3.023,3.023,0,1,0,0-6.036H12v6.036h2.1Zm0-1.131H13V71.11h1.095A1.766,1.766,0,0,1,15.986,73,1.807,1.807,0,0,1,14.095,74.883ZM21,76.058a3.06,3.06,0,1,0,0-6.12A3.06,3.06,0,1,0,21,76.058Zm0-1.118A1.948,1.948,0,1,1,22.8,73,1.794,1.794,0,0,1,21,74.94Zm7.032,1.128a2.734,2.734,0,0,0,2.483-1.459l-1.086-.525a1.591,1.591,0,0,1-1.4.863,1.951,1.951,0,0,1,0-3.9,1.609,1.609,0,0,1,1.4.863l1.086-.534a2.717,2.717,0,0,0-2.483-1.45A3.071,3.071,0,1,0,28.034,76.068Z"/>
  <path id="Shape-7" data-name="Shape" class="cls-1" d="M27.025,25V35H0V8.614L8.614,0H27.025V11h-2.03V2H9.18L2,9.515V33H24.995V25h2.03Z"/>
  <rect id="Shape-8" data-name="Shape" class="cls-6" x="8" y="12" width="26" height="12" rx="1" ry="1"/>
  <path id="PDF" class="cls-3" d="M14.023,21.028v-2.04h2a1.956,1.956,0,0,0,2.017-2.03,1.874,1.874,0,0,0-2.017-1.936h-3v6.006h1Zm1.985-3.166H14.023V16.085h1.985a0.854,0.854,0,0,1,.882.873A0.885,0.885,0,0,1,16.008,17.862Zm5.8,3.166a3.008,3.008,0,1,0,0-6.006H18.976v6.006h2.837ZM22,19.964H20V16.022h2A1.831,1.831,0,0,1,23.882,18,1.873,1.873,0,0,1,22,19.964Zm5.012,1.063V18.011h3v-1h-3V16.022h2.971v-1h-4v6.006h1.029Z"/>
  <path id="Shape-9" data-name="Shape" class="cls-1" d="M27.025,410v10H0V393.614L8.614,385H27.025v11h-2.03v-9H9.18L2,394.515V418H24.995v-8h2.03Z"/>
  <rect id="Shape-10" data-name="Shape" class="cls-7" x="8" y="397" width="26" height="12" rx="1" ry="1"/>
  <path id="XLS" class="cls-3" d="M19.067,406l-2.179-3.088,2.044-2.918h-1.54l-1.36,2.053-1.378-2.053H13.133l2.044,2.927L13,406H14.52l1.513-2.2,1.5,2.2h1.531Zm4.926,0v-0.969H20.985V399.99h-1V406h4.005Zm3.256,0.062c1.6,0,2.368-.816,2.368-1.9,0-2.209-3.4-1.579-3.4-2.519a0.69,0.69,0,0,1,.843-0.6,2.54,2.54,0,0,1,1.721.648l0.7-.923a3.292,3.292,0,0,0-2.306-.825,1.973,1.973,0,0,0-2.244,1.8c0,2.227,3.406,1.508,3.406,2.555a0.847,0.847,0,0,1-1.029.656,2.593,2.593,0,0,1-1.881-.8l-0.683.958A3.372,3.372,0,0,0,27.249,406.058Z"/>
  <path id="Shape-11" data-name="Shape" class="cls-1" d="M27.025,190v10H0V173.614L8.614,165H27.025v11h-2.03v-9H9.18L2,174.515V198H24.995v-8h2.03Z"/>
  <rect id="Shape-12" data-name="Shape" class="cls-8" x="8" y="177" width="26" height="12" rx="1" ry="1"/>
  <path id="PNG" class="cls-3" d="M14.02,185.988v-2h2.116a1.988,1.988,0,1,0,0-3.976H13v5.973H14.02Zm1.946-3.054H14.02v-1.862h1.946A0.933,0.933,0,0,1,15.966,182.934Zm8.048,3.054v-5.973H22.992v3.752l-2.923-3.752H18.98v5.973h1.053v-3.9l3,3.9h0.977Zm4.1,0.117a3.314,3.314,0,0,0,2.543-1.129v-1.948h-2.66v0.985h1.388v0.5a2.019,2.019,0,0,1-1.272.456,1.963,1.963,0,0,1,0-3.922,1.691,1.691,0,0,1,1.415.779l1.057-.573a2.793,2.793,0,0,0-2.472-1.334A3.1,3.1,0,1,0,28.112,186.105Z"/>
  <path id="Shape-13" data-name="Shape" class="cls-1" d="M27.025,245v10H0V228.614L8.614,220H27.025v11h-2.03v-9H9.18L2,229.515V253H24.995v-8h2.03Z"/>
  <rect id="Shape-14" data-name="Shape" class="cls-9" x="8" y="232" width="26" height="12" rx="1" ry="1"/>
  <path id="PPT" class="cls-3" d="M14.023,241.006V239h2.062a1.981,1.981,0,0,0,2.017-2.061A1.874,1.874,0,0,0,16.084,235H13.026v6h1Zm1.953-3.165H14.023v-1.776h1.953a0.853,0.853,0,0,1,.882.872A0.885,0.885,0,0,1,15.976,237.841Zm12,3.165v-5h2.028v-1H25v1h1.974v5H27.98Zm-7.957,0V239h2.03a1.981,1.981,0,0,0,2.017-2.061A1.874,1.874,0,0,0,22.053,235H19.026v6h1Zm1.922-3.165H20.023v-1.776h1.922a0.853,0.853,0,0,1,.882.872A0.885,0.885,0,0,1,21.944,237.841Z"/>
  <path id="Shape-15" data-name="Shape" class="cls-1" d="M27.025,355v10H0V338.614L8.614,330H27.025v11h-2.03v-9H9.18L2,339.515V363H24.995v-8h2.03Z"/>
  <rect id="Shape-16" data-name="Shape" class="cls-10" x="8" y="342" width="26" height="12" rx="1" ry="1"/>
  <path id="TIF" class="cls-3" d="M17.012,351v-5h1.966v-1H14v1h1.975v5h1.038Zm5.009,0V344.99h-1V351h1Zm2.992,0v-2.985h2.908v-1H25.013v-0.988h2.971V344.99h-4V351h1.029Z"/>
  <path id="Shape-17" data-name="Shape" class="cls-1" d="M27.025,520v10H0V503.614L8.614,495H27.025v11h-2.03v-9H9.18L2,504.515V528H24.995v-8h2.03Z"/>
  <rect id="Shape-18" data-name="Shape" class="cls-11" x="8" y="507" width="26" height="12" rx="1" ry="1"/>
  <path id="FILE" class="cls-3" d="M19,516V509.99h-1V516h1Zm5,0v-1H21v-5H20v6h4Zm5,0v-1H26v-2h3v-1H26v-1h3v-1H25v6h4Zm-14.988.027v-3.016h3v-1h-3v-0.988h2.971v-1h-4v6.005h1.029Z"/>
  <path id="Shape-19" data-name="Shape" class="cls-1" d="M27.025,465v10H0V448.614L8.614,440H27.025v11h-2.03v-9H9.18L2,449.515V473H24.995v-8h2.03Z"/>
  <rect id="Shape-20" data-name="Shape" class="cls-12" x="8" y="452" width="26" height="12" rx="1" ry="1"/>
  <path id="RTF" class="cls-3" d="M16.694,458.709L18.138,461H16.67L15.4,458.862ZM22.012,461v-5h1.966v-1H19v1h1.975v5h1.038Zm4,0v-2.985h2.908v-1H26.013v-0.989h2.971V454.99h-4V461h1.029ZM13.979,461v-2.008h2.036a1.97,1.97,0,0,0,1.991-2.061A1.862,1.862,0,0,0,16.015,455H12.994v6h0.985Zm1.929-3.165H13.979v-1.776h1.929a0.848,0.848,0,0,1,.871.872A0.88,0.88,0,0,1,15.908,457.837Z"/>
</svg>
