<svg xmlns="http://www.w3.org/2000/svg" width="88" height="78" viewBox="0 0 88 78">
  <defs>
    <style>
      .qcls-1 {
        fill: #222;
        fill-rule: evenodd;
      }
    </style>
  </defs>
  <path class="qcls-1" d="M80,67H77V78H74.719l-11-11H25a1,1,0,0,1,0-2H64.719l10,10H75V65h5a6,6,0,0,0,6-6V21a6,6,0,0,0-6-6H79a1,1,0,0,1,0-2h1a8,8,0,0,1,8,8V59A8,8,0,0,1,80,67ZM66,54H24.031L13,65.031V65H11V54H8a8,8,0,0,1-8-8V8A8,8,0,0,1,8,0H66a8,8,0,0,1,8,8V46A8,8,0,0,1,66,54ZM72,8a6,6,0,0,0-6-6H8A6,6,0,0,0,2,8V46a6,6,0,0,0,6,6h5V62h0.313l10-10H66a6,6,0,0,0,6-6V8ZM48.714,20.735L34.767,34.682a1.154,1.154,0,0,1-1.534,0l-6.947-6.947a1.025,1.025,0,0,1,1.45-1.45L34,32.551,47.265,19.286A1.025,1.025,0,0,1,48.714,20.735Z"/>
</svg>
