<svg xmlns="http://www.w3.org/2000/svg" width="18" height="18" viewBox="0 0 18 18">
  <defs>
    <style>
      .cls-1 {
        fill: #222;
        fill-rule: evenodd;
      }
    </style>
  </defs>
  <path class="cls-1" d="M9,18a9,9,0,1,1,9-9A9,9,0,0,1,9,18Zm3.586-3.019a4.086,4.086,0,0,0-7.169,0A6.831,6.831,0,0,0,12.586,14.981ZM9,1.99A6.989,6.989,0,0,0,3.938,13.815a5.969,5.969,0,0,1,10.128-.006A6.989,6.989,0,0,0,9,1.99ZM9.064,10H8.935A2.936,2.936,0,0,1,6,7.064V6.935A2.936,2.936,0,0,1,8.935,4H9.064A2.936,2.936,0,0,1,12,6.935V7.064A2.936,2.936,0,0,1,9.064,10Zm1.217-3.023A1.258,1.258,0,0,0,9.023,5.719H8.977A1.258,1.258,0,0,0,7.719,6.977V7.054A1.258,1.258,0,0,0,8.977,8.312H9.023a1.258,1.258,0,0,0,1.258-1.258V6.977Z"/>
</svg>
